<svg width="120" height="27" viewBox="0 0 120 27" fill="none" xmlns="http://www.w3.org/2000/svg">
<g clip-path="url(#clip0_17_134)">
<path d="M30.5611 8.54416C29.9523 8.54416 29.4321 8.44157 28.9893 8.2478C28.5466 8.05403 28.2034 7.76907 27.9488 7.40433C27.7053 7.03959 27.5614 6.60645 27.5393 6.10493H28.7679C28.8011 6.40128 28.8897 6.65205 29.0557 6.84582C29.2218 7.05099 29.4321 7.19916 29.6977 7.29035C29.9634 7.39293 30.2401 7.43853 30.55 7.43853C30.8931 7.43853 31.192 7.38153 31.4576 7.26755C31.7344 7.15357 31.9447 7.00539 32.0886 6.80022C32.2435 6.59505 32.321 6.36709 32.321 6.10493C32.321 5.85417 32.2546 5.6604 32.1218 5.50082C31.9889 5.35264 31.8118 5.22726 31.5794 5.12468C31.347 5.0221 31.0924 4.93091 30.7935 4.85112L29.8527 4.58896C29.1996 4.40659 28.6794 4.13303 28.3141 3.77969C27.9378 3.41494 27.7607 2.95901 27.7607 2.3891C27.7607 1.91037 27.8824 1.48864 28.137 1.13529C28.3805 0.781944 28.7237 0.496987 29.1553 0.303217C29.587 0.0980483 30.074 0.00686264 30.6164 0.00686264C31.1588 0.00686264 31.6458 0.0980483 32.0664 0.303217C32.487 0.496987 32.8191 0.770546 33.0515 1.11249C33.2951 1.46584 33.4279 1.85338 33.4389 2.29791H32.2325C32.1882 1.92177 32.0221 1.62542 31.7233 1.42025C31.4244 1.20368 31.037 1.1011 30.5832 1.1011C30.2622 1.1011 29.9744 1.15809 29.742 1.26067C29.4985 1.36326 29.3103 1.51143 29.1885 1.6938C29.0557 1.87618 28.9893 2.08135 28.9893 2.32071C28.9893 2.58287 29.0668 2.78804 29.2218 2.95901C29.3767 3.11859 29.5649 3.24397 29.7973 3.33515C30.0187 3.43774 30.2401 3.50613 30.4393 3.56312L31.2252 3.77969C31.4798 3.84807 31.7454 3.92786 32.0111 4.04185C32.2878 4.15583 32.5313 4.30401 32.7638 4.48638C32.9962 4.66875 33.1844 4.88532 33.3283 5.15887C33.4721 5.42103 33.5386 5.74019 33.5386 6.11633C33.5386 6.58366 33.4279 7.00539 33.1954 7.37014C32.9519 7.73488 32.6199 8.01984 32.1771 8.2364C31.7233 8.44157 31.192 8.54416 30.5611 8.54416Z" fill="black"/>
<path d="M34.3367 8.40736L37.2035 0.109428H38.7199L41.631 8.40736H40.3027L38.731 3.79106C38.6092 3.41492 38.4764 2.98179 38.3325 2.46887C38.1886 1.95595 38.0115 1.35184 37.8233 0.645146H38.0779C37.8897 1.36324 37.7237 1.97874 37.5798 2.49166C37.4359 3.00459 37.3031 3.43772 37.1924 3.79106L35.6649 8.40736H34.3367ZM35.8863 6.21889V5.15886H40.0813V6.21889H35.8863Z" fill="black"/>
<path d="M42.8025 8.40736V0.109428H44.0311V7.31313H47.6727V8.40736H42.8025Z" fill="black"/>
<path d="M50.5688 8.40736L47.6577 0.109428H48.986L50.5577 4.72572C50.6684 5.09047 50.8012 5.5236 50.9562 6.03652C51.1001 6.54944 51.2661 7.16495 51.4543 7.86024H51.2108C51.3989 7.14215 51.565 6.53804 51.7089 6.02512C51.8528 5.5122 51.9856 5.09047 52.0963 4.72572L53.6127 0.109428H54.952L52.0741 8.40736H50.5688Z" fill="black"/>
<path d="M54.709 8.40736L57.5758 0.109428H59.0922L62.0033 8.40736H60.675L59.1033 3.79106C58.9815 3.41492 58.8487 2.98179 58.7048 2.46887C58.5609 1.95595 58.3838 1.35184 58.1956 0.645146H58.4502C58.262 1.36324 58.096 1.97874 57.9521 2.49166C57.8082 3.00459 57.6754 3.43772 57.5647 3.79106L56.0372 8.40736H54.709ZM56.2586 6.21889V5.15886H60.4537V6.21889H56.2586Z" fill="black"/>
<path d="M61.8086 1.20366V0.109428H68.0624V1.20366H65.5609V8.40736H64.3212V1.20366H61.8086Z" fill="black"/>
<path d="M72.4636 8.52136C71.7663 8.52136 71.1465 8.35039 70.593 8.00844C70.0507 7.66649 69.6079 7.17637 69.298 6.54946C68.977 5.91116 68.822 5.14748 68.822 4.26981C68.822 3.38075 68.977 2.61706 69.298 1.97876C69.6079 1.34046 70.0507 0.861732 70.593 0.519784C71.1465 0.177837 71.7663 0.00686264 72.4636 0.00686264C73.161 0.00686264 73.7808 0.177837 74.3232 0.519784C74.8656 0.861732 75.2972 1.34046 75.6182 1.97876C75.9281 2.61706 76.0942 3.38075 76.0942 4.26981C76.0942 5.14748 75.9281 5.91116 75.6182 6.54946C75.2972 7.17637 74.8656 7.66649 74.3232 8.00844C73.7808 8.35039 73.161 8.52136 72.4636 8.52136ZM72.4636 7.35874C72.9175 7.35874 73.327 7.24476 73.6923 7.00539C74.0575 6.76603 74.3343 6.42408 74.5446 5.95675C74.7549 5.50082 74.8656 4.93091 74.8656 4.26981C74.8656 3.59731 74.7549 3.0274 74.5446 2.56007C74.3343 2.10414 74.0575 1.7508 73.6923 1.51143C73.327 1.27207 72.9175 1.15809 72.4636 1.15809C71.9987 1.15809 71.5892 1.28347 71.2239 1.52283C70.8587 1.7508 70.5709 2.10414 70.3606 2.57147C70.1503 3.0274 70.0507 3.59731 70.0507 4.26981C70.0507 4.93091 70.1503 5.50082 70.3606 5.95675C70.5709 6.41268 70.8587 6.76603 71.2239 7.00539C71.5892 7.24476 71.9987 7.35874 72.4636 7.35874Z" fill="black"/>
<path d="M77.595 8.40736V0.109428H80.4728C81.0927 0.109428 81.6129 0.223411 82.0225 0.451376C82.4431 0.667943 82.753 0.975696 82.9522 1.36324C83.1625 1.76218 83.2622 2.20671 83.2622 2.71963C83.2622 3.23255 83.1625 3.67708 82.9522 4.06462C82.7419 4.45216 82.432 4.74852 82.0225 4.95369C81.6129 5.17025 81.0927 5.27284 80.4618 5.27284H78.2923V4.19H80.34C80.7385 4.19 81.0595 4.13301 81.303 4.01903C81.5465 3.89365 81.7236 3.73407 81.8454 3.50611C81.9561 3.28954 82.0114 3.02738 82.0114 2.71963C82.0114 2.41188 81.9561 2.13832 81.8454 1.91035C81.7236 1.68239 81.5465 1.51141 81.303 1.38603C81.0595 1.26065 80.7385 1.20366 80.34 1.20366H78.8236V8.40736H77.595ZM82.1664 8.40736L80.2183 4.65733H81.5797L83.5721 8.40736H82.1664Z" fill="black"/>
<path d="M84.7668 8.40736V0.109428H89.8253V1.20366H85.9955V3.67708H89.5596V4.75992H85.9955V7.31313H89.8695V8.40736H84.7668Z" fill="black"/>
<path d="M24.958 0.00012207H-0.000244141V26.8487H24.958V0.00012207Z" fill="black"/>
<path d="M32.2229 26.7846H28.4574V24.695H32.0974C33.248 24.695 34.2103 24.458 34.9634 24.0272C35.7374 23.5748 36.3023 22.9285 36.6788 22.0668C37.0554 21.2051 37.2646 20.1711 37.2646 18.9216C37.2646 17.6937 37.0554 16.6596 36.6788 15.8195C36.3023 14.9578 35.7374 14.3115 35.0053 13.8807C34.2521 13.4283 33.3317 13.2128 32.2229 13.2128H28.3737V11.1017H32.3694C33.8756 11.1017 35.1517 11.4248 36.2186 12.0495C37.2855 12.6743 38.1014 13.5791 38.6871 14.7424C39.252 15.9057 39.5448 17.3059 39.5448 18.9216C39.5448 20.5588 39.252 21.9591 38.6871 23.1439C38.1014 24.3072 37.2646 25.212 36.1768 25.8367C35.0889 26.4615 33.771 26.7846 32.2229 26.7846ZM29.608 11.1017V26.7846H27.2859V11.1017H29.608Z" fill="black"/>
<path d="M42.387 26.7846V11.1017H51.9473V13.1698H44.709V17.8445H51.4452V19.891H44.709V24.7165H52.0309V26.7846H42.387Z" fill="black"/>
<path d="M58.6973 26.7846V11.1017H64.1364C65.3079 11.1017 66.2911 11.3171 67.0651 11.748C67.8601 12.1573 68.4458 12.7389 68.8224 13.4714C69.2199 14.2253 69.4081 15.0655 69.4081 16.0349C69.4081 17.0043 69.2199 17.8445 68.8224 18.5769C68.4249 19.3094 67.8392 19.8695 67.0651 20.2572C66.2911 20.6665 65.3079 20.8604 64.1155 20.8604H60.0152V18.8139H63.8853C64.6385 18.8139 65.2451 18.7062 65.7054 18.4908C66.1656 18.2538 66.5003 17.9522 66.7304 17.5213C66.9396 17.112 67.0442 16.6166 67.0442 16.0349C67.0442 15.4533 66.9396 14.9362 66.7304 14.5054C66.5003 14.0745 66.1656 13.7514 65.7054 13.5144C65.2451 13.2775 64.6385 13.1698 63.8853 13.1698H61.0194V26.7846H58.6973ZM67.3371 26.7846L63.6552 19.6971H66.2284L69.9939 26.7846H67.3371Z" fill="black"/>
<path d="M78.5908 27C77.2729 27 76.1014 26.6769 75.0554 26.0306C74.0303 25.3843 73.1935 24.458 72.6078 23.2732C72.0011 22.0668 71.7083 20.6234 71.7083 18.9647C71.7083 17.2844 72.0011 15.841 72.6078 14.6346C73.1935 13.4282 74.0303 12.5235 75.0554 11.8772C76.1014 11.2309 77.2729 10.9078 78.5908 10.9078C79.9088 10.9078 81.0803 11.2309 82.1053 11.8772C83.1304 12.5235 83.9463 13.4282 84.5529 14.6346C85.1387 15.841 85.4525 17.2844 85.4525 18.9647C85.4525 20.6234 85.1387 22.0668 84.5529 23.2732C83.9463 24.458 83.1304 25.3843 82.1053 26.0306C81.0803 26.6769 79.9088 27 78.5908 27ZM78.5908 24.8027C79.4485 24.8027 80.2226 24.5873 80.9129 24.1349C81.6033 23.6825 82.1263 23.0362 82.5237 22.153C82.9212 21.2913 83.1304 20.2141 83.1304 18.9647C83.1304 17.6937 82.9212 16.6165 82.5237 15.7333C82.1263 14.8716 81.6033 14.2038 80.9129 13.7514C80.2226 13.299 79.4485 13.0836 78.5908 13.0836C77.7122 13.0836 76.9382 13.3205 76.2478 13.7729C75.5575 14.2038 75.0136 14.8716 74.6161 15.7548C74.2186 16.6165 74.0303 17.6937 74.0303 18.9647C74.0303 20.2141 74.2186 21.2913 74.6161 22.153C75.0136 23.0147 75.5575 23.6825 76.2478 24.1349C76.9382 24.5873 77.7122 24.8027 78.5908 24.8027Z" fill="black"/>
<path d="M88.2888 26.7846V11.1017H91.7196L95.025 20.1064C95.1296 20.3649 95.2342 20.7096 95.3597 21.1189C95.4643 21.5282 95.5898 21.9591 95.7153 22.4546C95.8617 22.9285 95.9873 23.3809 96.0919 23.8548C96.2174 24.3072 96.322 24.7381 96.4057 25.1043H95.9036C96.0082 24.7596 96.1128 24.3503 96.2174 23.8979C96.3429 23.424 96.4684 22.9716 96.5939 22.4761C96.7195 22.0022 96.845 21.5498 96.9705 21.1405C97.0751 20.7096 97.2006 20.3649 97.2843 20.1064L100.569 11.1017H104V26.7846H101.698V18.3615C101.698 18.0168 101.698 17.6291 101.698 17.1982C101.698 16.7458 101.719 16.2719 101.719 15.7764C101.74 15.2594 101.74 14.7639 101.761 14.2469C101.782 13.7299 101.782 13.2344 101.782 12.7605H101.97C101.824 13.2775 101.677 13.816 101.51 14.3546C101.364 14.8932 101.196 15.4102 101.05 15.9272C100.882 16.4227 100.736 16.8966 100.611 17.3059C100.464 17.7368 100.339 18.0814 100.255 18.3615L97.1378 26.7846H95.1296L91.9916 18.3615C91.887 18.0814 91.7615 17.7368 91.636 17.3275C91.5105 16.9182 91.364 16.4658 91.1967 15.9703C91.0502 15.4748 90.8829 14.9362 90.7155 14.3977C90.5691 13.8591 90.4017 13.3206 90.2343 12.7605H90.4435C90.4435 13.1913 90.4645 13.6652 90.4645 14.1607C90.4854 14.6777 90.4854 15.1732 90.5063 15.6902C90.5063 16.2072 90.5272 16.6812 90.5272 17.1336C90.5481 17.6075 90.5481 18.0168 90.5481 18.3615V26.7846H88.2888Z" fill="black"/>
<path d="M106.213 26.7846L111.631 11.1017H114.497L119.999 26.7846H117.489L114.518 18.0599C114.288 17.349 114.037 16.5304 113.765 15.561C113.493 14.5916 113.158 13.4498 112.803 12.1142H113.284C112.928 13.4714 112.615 14.6346 112.343 15.6041C112.071 16.5735 111.82 17.3921 111.61 18.0599L108.723 26.7846H106.213ZM109.142 22.6485V20.645H117.07V22.6485H109.142Z" fill="black"/>
<path d="M3.71899 14.9779V11.8852L21.2568 3.14159V7.37974L8.35371 13.3742L8.46495 13.1452V13.7179L8.35371 13.4888L21.2568 19.5215V23.7215L3.71899 14.9779Z" fill="white"/>
</g>
<defs>
<clipPath id="clip0_17_134">
<rect width="120" height="27" fill="white"/>
</clipPath>
</defs>
</svg>
