<svg width="169" height="37" viewBox="0 0 169 37" fill="none" xmlns="http://www.w3.org/2000/svg">
<g clip-path="url(#clip0_17_89)">
<path d="M43.0401 11.6749C42.1827 11.6749 41.4501 11.5347 40.8265 11.2699C40.203 11.0052 39.7197 10.6158 39.3612 10.1174C39.0183 9.61902 38.8156 9.02718 38.7844 8.34189H40.5147C40.5615 8.74683 40.6862 9.08948 40.92 9.35425C41.1539 9.6346 41.4501 9.83707 41.8242 9.96167C42.1983 10.1018 42.588 10.1641 43.0245 10.1641C43.5077 10.1641 43.9286 10.0863 44.3027 9.93052C44.6925 9.77477 44.9886 9.5723 45.1913 9.29195C45.4095 9.0116 45.5186 8.70011 45.5186 8.34189C45.5186 7.99924 45.4251 7.73447 45.238 7.51642C45.051 7.31395 44.8016 7.14263 44.4742 7.00246C44.1469 6.86228 43.7883 6.73769 43.3674 6.62866L42.0424 6.27044C41.1227 6.02125 40.39 5.64745 39.8756 5.16463C39.3456 4.66624 39.0962 4.04325 39.0962 3.26451C39.0962 2.61037 39.2677 2.0341 39.6262 1.55128C39.9691 1.06846 40.4524 0.679092 41.0603 0.41432C41.6683 0.133974 42.3542 0.00937653 43.118 0.00937653C43.8819 0.00937653 44.5677 0.133974 45.1601 0.41432C45.7525 0.679092 46.2201 1.05289 46.5475 1.52013C46.8904 2.00295 47.0775 2.53249 47.0931 3.13991H45.3939C45.3316 2.62594 45.0978 2.221 44.6769 1.94065C44.256 1.64473 43.7104 1.50456 43.0713 1.50456C42.6192 1.50456 42.2139 1.58243 41.8865 1.7226C41.5436 1.86278 41.2786 2.06525 41.1071 2.31445C40.92 2.56364 40.8265 2.84399 40.8265 3.17106C40.8265 3.52928 40.9356 3.80963 41.1539 4.04325C41.3721 4.26129 41.6371 4.43262 41.9645 4.55721C42.2762 4.69739 42.588 4.79084 42.8686 4.86871L43.9754 5.16463C44.3339 5.25808 44.708 5.3671 45.0822 5.52285C45.4719 5.6786 45.8148 5.88107 46.1422 6.13027C46.4695 6.37947 46.7345 6.67539 46.9372 7.04918C47.1398 7.4074 47.2334 7.8435 47.2334 8.35746C47.2334 8.99603 47.0775 9.5723 46.7501 10.0707C46.4072 10.5691 45.9395 10.9585 45.316 11.2544C44.6769 11.5347 43.9286 11.6749 43.0401 11.6749Z" fill="white"/>
<path d="M48.3575 11.488L52.395 0.149525H54.5306L58.6303 11.488H56.7597L54.5462 5.18018C54.3747 4.66621 54.1876 4.07437 53.985 3.37351C53.7823 2.67264 53.5329 1.84718 53.2679 0.88154H53.6264C53.3614 1.86275 53.1276 2.70379 52.925 3.40466C52.7223 4.10552 52.5353 4.69736 52.3794 5.18018L50.2282 11.488H48.3575ZM50.5399 8.49761V7.04916H56.448V8.49761H50.5399Z" fill="white"/>
<path d="M60.2802 11.488V0.149525H62.0105V9.99279H67.1391V11.488H60.2802Z" fill="white"/>
<path d="M71.2176 11.488L67.1178 0.149525H68.9884L71.202 6.45731C71.3579 6.95571 71.5449 7.54755 71.7632 8.24841C71.9658 8.94928 72.1996 9.79032 72.4646 10.7404H72.1217C72.3867 9.75917 72.6205 8.93371 72.8232 8.23284C73.0258 7.53197 73.2129 6.95571 73.3688 6.45731L75.5044 0.149525H77.3906L73.3376 11.488H71.2176Z" fill="white"/>
<path d="M77.0485 11.488L81.0859 0.149525H83.2215L87.3213 11.488H85.4506L83.2371 5.18018C83.0656 4.66621 82.8785 4.07437 82.6759 3.37351C82.4732 2.67264 82.2238 1.84718 81.9588 0.88154H82.3174C82.0524 1.86275 81.8185 2.70379 81.6159 3.40466C81.4132 4.10552 81.2262 4.69736 81.0703 5.18018L78.9191 11.488H77.0485ZM79.2308 8.49761V7.04916H85.1389V8.49761H79.2308Z" fill="white"/>
<path d="M87.0471 1.6447V0.149525H95.8546V1.6447H92.3316V11.488H90.5857V1.6447H87.0471Z" fill="white"/>
<path d="M102.053 11.6437C101.071 11.6437 100.198 11.4101 99.4185 10.9429C98.6546 10.4756 98.0311 9.80592 97.5946 8.94931C97.1426 8.07712 96.9243 7.03361 96.9243 5.83435C96.9243 4.61951 97.1426 3.576 97.5946 2.70381C98.0311 1.83163 98.6546 1.17749 99.4185 0.710242C100.198 0.242999 101.071 0.00937653 102.053 0.00937653C103.035 0.00937653 103.908 0.242999 104.672 0.710242C105.436 1.17749 106.044 1.83163 106.496 2.70381C106.932 3.576 107.166 4.61951 107.166 5.83435C107.166 7.03361 106.932 8.07712 106.496 8.94931C106.044 9.80592 105.436 10.4756 104.672 10.9429C103.908 11.4101 103.035 11.6437 102.053 11.6437ZM102.053 10.0551C102.692 10.0551 103.269 9.89937 103.783 9.5723C104.298 9.24523 104.687 8.77798 104.984 8.13942C105.28 7.51642 105.436 6.73769 105.436 5.83435C105.436 4.91543 105.28 4.1367 104.984 3.49813C104.687 2.87514 104.298 2.39232 103.783 2.06525C103.269 1.73818 102.692 1.58243 102.053 1.58243C101.398 1.58243 100.821 1.75375 100.307 2.08082C99.7926 2.39232 99.3873 2.87514 99.0911 3.5137C98.7949 4.13669 98.6546 4.91543 98.6546 5.83435C98.6546 6.73769 98.7949 7.51642 99.0911 8.13942C99.3873 8.76241 99.7926 9.24523 100.307 9.5723C100.821 9.89937 101.398 10.0551 102.053 10.0551Z" fill="white"/>
<path d="M109.279 11.488V0.149525H113.332C114.205 0.149525 114.938 0.305272 115.515 0.616768C116.107 0.912689 116.544 1.33321 116.824 1.86275C117.12 2.40787 117.261 3.01529 117.261 3.71615C117.261 4.41702 117.12 5.02443 116.824 5.55398C116.528 6.08352 116.091 6.48846 115.515 6.76881C114.938 7.06473 114.205 7.2049 113.317 7.2049H110.261V5.7253H113.145C113.706 5.7253 114.158 5.64743 114.501 5.49168C114.844 5.32035 115.094 5.10231 115.265 4.79081C115.421 4.49489 115.499 4.13667 115.499 3.71615C115.499 3.29563 115.421 2.92184 115.265 2.61034C115.094 2.29885 114.844 2.06522 114.501 1.8939C114.158 1.72258 113.706 1.6447 113.145 1.6447H111.01V11.488H109.279ZM115.717 11.488L112.974 6.36387H114.891L117.697 11.488H115.717Z" fill="white"/>
<path d="M119.38 11.488V0.149525H126.504V1.6447H121.11V5.02443H126.13V6.50404H121.11V9.99279H126.566V11.488H119.38Z" fill="white"/>
<path d="M35.1492 0.00012207H-0.000244141V36.6866H35.1492V0.00012207Z" fill="white"/>
<path d="M45.3806 36.599H40.0775V33.7437H45.2038C46.8243 33.7437 48.1795 33.4199 49.2401 32.8312C50.3302 32.213 51.1257 31.3299 51.656 30.1525C52.1863 28.975 52.4809 27.5621 52.4809 25.8548C52.4809 24.177 52.1863 22.764 51.656 21.616C51.1257 20.4386 50.3302 19.5555 49.2991 18.9668C48.2384 18.3486 46.9421 18.0543 45.3806 18.0543H39.9596V15.1695H45.5869C47.7081 15.1695 49.5053 15.6111 51.0078 16.4647C52.5104 17.3184 53.6594 18.5547 54.4843 20.1442C55.2798 21.7338 55.6923 23.6471 55.6923 25.8548C55.6923 28.092 55.2798 30.0053 54.4843 31.6243C53.6594 33.2138 52.4809 34.4502 50.9489 35.3038C49.4169 36.1574 47.5608 36.599 45.3806 36.599ZM41.6979 15.1695V36.599H38.4276V15.1695H41.6979Z" fill="white"/>
<path d="M59.6948 36.599V15.1695H73.1589V17.9954H62.9651V24.383H72.4518V27.1795H62.9651V33.7731H73.2768V36.599H59.6948Z" fill="white"/>
<path d="M82.6654 36.599V15.1695H90.3255C91.9754 15.1695 93.3601 15.4639 94.4502 16.0526C95.5697 16.6119 96.3946 17.4067 96.925 18.4075C97.4847 19.4378 97.7499 20.5858 97.7499 21.9104C97.7499 23.235 97.4847 24.383 96.925 25.3839C96.3652 26.3847 95.5403 27.15 94.4502 27.6799C93.3601 28.2391 91.9754 28.5041 90.296 28.5041H84.5215V25.7076H89.972C91.0326 25.7076 91.887 25.5605 92.5351 25.2661C93.1833 24.9423 93.6547 24.5302 93.9788 23.9415C94.2734 23.3822 94.4207 22.7052 94.4207 21.9104C94.4207 21.1156 94.2734 20.4092 93.9788 19.8204C93.6547 19.2317 93.1833 18.7902 92.5351 18.4664C91.887 18.1426 91.0326 17.9954 89.972 17.9954H85.9357V36.599H82.6654ZM94.8332 36.599L89.6479 26.9145H93.2717L98.5748 36.599H94.8332Z" fill="white"/>
<path d="M110.682 36.8933C108.826 36.8933 107.176 36.4518 105.703 35.5687C104.259 34.6856 103.081 33.4199 102.256 31.8009C101.402 30.1525 100.989 28.1802 100.989 25.9137C100.989 23.6177 101.402 21.6454 102.256 19.997C103.081 18.3486 104.259 17.1123 105.703 16.2292C107.176 15.3461 108.826 14.9046 110.682 14.9046C112.538 14.9046 114.188 15.3461 115.632 16.2292C117.075 17.1123 118.224 18.3486 119.079 19.997C119.904 21.6454 120.346 23.6177 120.346 25.9137C120.346 28.1802 119.904 30.1525 119.079 31.8009C118.224 33.4199 117.075 34.6856 115.632 35.5687C114.188 36.4518 112.538 36.8933 110.682 36.8933ZM110.682 33.8908C111.89 33.8908 112.98 33.5965 113.952 32.9783C114.925 32.3602 115.661 31.4771 116.221 30.2702C116.781 29.0928 117.075 27.621 117.075 25.9137C117.075 24.1769 116.781 22.7051 116.221 21.4983C115.661 20.3208 114.925 19.4083 113.952 18.7902C112.98 18.172 111.89 17.8776 110.682 17.8776C109.445 17.8776 108.355 18.2014 107.382 18.8196C106.41 19.4083 105.644 20.3208 105.084 21.5277C104.525 22.7051 104.259 24.1769 104.259 25.9137C104.259 27.621 104.525 29.0928 105.084 30.2702C105.644 31.4476 106.41 32.3602 107.382 32.9783C108.355 33.5965 109.445 33.8908 110.682 33.8908Z" fill="white"/>
<path d="M124.34 36.599V15.1695H129.172L133.827 27.4738C133.974 27.827 134.121 28.298 134.298 28.8573C134.446 29.4166 134.622 30.0053 134.799 30.6823C135.005 31.3299 135.182 31.9481 135.329 32.5957C135.506 33.2138 135.653 33.8026 135.771 34.303H135.064C135.212 33.832 135.359 33.2727 135.506 32.6546C135.683 32.007 135.86 31.3888 136.036 30.7118C136.213 30.0642 136.39 29.446 136.567 28.8867C136.714 28.298 136.891 27.827 137.009 27.4738L141.634 15.1695H146.466V36.599H143.225V25.0895C143.225 24.6185 143.225 24.0887 143.225 23.4999C143.225 22.8818 143.255 22.2342 143.255 21.5572C143.284 20.8507 143.284 20.1737 143.314 19.4672C143.343 18.7607 143.343 18.0837 143.343 17.4361H143.608C143.402 18.1426 143.196 18.8785 142.96 19.6144C142.754 20.3503 142.518 21.0568 142.312 21.7632C142.076 22.4402 141.87 23.0878 141.693 23.6471C141.487 24.2358 141.31 24.7068 141.192 25.0895L136.802 36.599H133.974L129.555 25.0895C129.408 24.7068 129.231 24.2358 129.054 23.6766C128.877 23.1173 128.671 22.4991 128.435 21.8221C128.229 21.1451 127.993 20.4092 127.758 19.6733C127.551 18.9374 127.316 18.2015 127.08 17.4361H127.375C127.375 18.0248 127.404 18.6724 127.404 19.3495C127.434 20.0559 127.434 20.733 127.463 21.4394C127.463 22.1459 127.493 22.7935 127.493 23.4116C127.522 24.0592 127.522 24.6185 127.522 25.0895V36.599H124.34Z" fill="white"/>
<path d="M149.583 36.599L157.214 15.1695H161.25L168.999 36.599H165.463L161.28 24.6774C160.956 23.706 160.602 22.5874 160.219 21.2628C159.836 19.9382 159.365 18.3781 158.864 16.553H159.542C159.041 18.4075 158.599 19.9971 158.216 21.3217C157.833 22.6463 157.479 23.7649 157.185 24.6774L153.119 36.599H149.583ZM153.708 30.9473V28.2097H164.874V30.9473H153.708Z" fill="white"/>
<path d="M5.23755 20.466V16.2401L29.9366 4.29272V10.0838L11.7648 18.2748L11.9214 17.9618V18.7444L11.7648 18.4313L29.9366 26.6745V32.4134L5.23755 20.466Z" fill="white"/>
</g>
<defs>
<clipPath id="clip0_17_89">
<rect width="169" height="36.8933" fill="white"/>
</clipPath>
</defs>
</svg>
