<svg width="100" height="25" viewBox="0 0 100 25" fill="none" xmlns="http://www.w3.org/2000/svg">
<path d="M28.5454 13.069V10.912C28.5454 8.3532 30.2395 6.69843 32.7859 6.69843C33.8553 6.69843 34.7236 6.99978 35.3271 7.56547V3.71666C35.3271 3.11397 35.7082 2.72803 36.3171 2.72803H36.7618C37.3653 2.72803 37.7517 3.10868 37.7517 3.71666V14.3749L38.657 15.2789C39.0382 15.6596 39.0805 16.146 38.6994 16.5266L38.297 16.9284C37.9159 17.3091 37.4288 17.2721 37.0476 16.8861L36.0206 15.8605C35.3959 16.7857 34.3265 17.2721 32.8706 17.2721C30.266 17.2721 28.5507 15.6173 28.5507 13.0585L28.5454 13.069ZM35.3218 13.2911V10.69C35.3218 9.3577 34.5753 8.61226 33.1618 8.61226C31.7483 8.61226 31.0018 9.3577 31.0018 10.69V13.2911C31.0018 14.6234 31.7483 15.3688 33.1618 15.3688C34.5753 15.3688 35.3218 14.6234 35.3218 13.2911Z" fill="black"/>
<path d="M40.4306 13.3916V10.7111C40.4306 8.11003 42.0029 6.70374 44.9305 6.70374C47.8581 6.70374 49.351 8.01487 49.351 10.5525V12.0011C49.351 12.5668 49.0863 12.847 48.5252 12.847H42.8341V13.6348C42.8341 14.9036 43.5223 15.4481 45.1158 15.4481C46.307 15.4481 46.9105 15.1045 46.9105 14.4225V14.359C46.9105 14.137 46.9899 14.0577 47.2334 14.0577H48.8852C49.0863 14.0577 49.2081 14.1793 49.2081 14.3802V14.4595C49.2081 16.3363 47.8158 17.2827 45.0893 17.2827C42.0188 17.2827 40.4253 15.9504 40.4253 13.3916H40.4306ZM42.8341 10.3093V11.0548H47.0322V10.3093C47.0322 9.11981 46.2858 8.49597 44.9146 8.49597C43.5435 8.49597 42.8341 9.11981 42.8341 10.3093Z" fill="black"/>
<path d="M54.4598 16.3574V9.60615L53.5545 8.7021C53.1733 8.32145 53.131 7.83506 53.5122 7.45441L53.9145 7.05261C54.2957 6.67196 54.7827 6.70897 55.1639 7.09491L56.3127 8.24215C56.8156 7.35396 57.6045 6.85171 58.6156 6.85171H58.8591C59.7856 6.85171 60.2726 7.23237 60.2726 7.9408V8.1417C60.2726 8.76554 59.8279 9.15148 59.145 9.15148H58.8644C57.5515 9.15148 56.8845 9.85463 56.8845 11.2662V16.3627C56.8845 16.7856 56.6039 17.0658 56.1751 17.0658H55.1692C54.7457 17.0658 54.4598 16.7856 54.4598 16.3627V16.3574Z" fill="black"/>
<path d="M61.1406 13.1536V10.838C61.1406 8.17872 62.8135 6.70898 65.8047 6.70898C68.7958 6.70898 70.4846 8.17872 70.4846 10.838V13.1536C70.4846 15.8129 68.8117 17.2826 65.8258 17.2826C62.84 17.2826 61.1459 15.8129 61.1459 13.1536H61.1406ZM68.0229 13.3915V10.5895C68.0229 9.29953 67.2552 8.61224 65.8047 8.61224C64.3541 8.61224 63.6024 9.29953 63.6024 10.5895V13.3915C63.6024 14.6815 64.37 15.3688 65.8206 15.3688C67.2711 15.3688 68.0176 14.6815 68.0176 13.3915H68.0229Z" fill="black"/>
<path d="M73.169 16.3574V9.60616L72.2637 8.70211C71.8826 8.32146 71.8402 7.83508 72.2214 7.45443L72.6237 7.05263C73.0049 6.67198 73.492 6.70898 73.8731 7.09492L74.8631 8.12056C75.4508 7.19537 76.4566 6.70898 77.7695 6.70898C79.2201 6.70898 80.3901 7.23238 81.0783 8.19987C81.6818 7.23238 82.7142 6.70898 84.0853 6.70898C86.5259 6.70898 88.1406 8.14171 88.1406 10.7005V16.3627C88.1406 16.7857 87.86 17.0659 87.4365 17.0659H86.4253C86.0018 17.0659 85.7212 16.7857 85.7212 16.3627V10.7005C85.7212 9.3894 85.0541 8.68625 83.8047 8.68625C82.5554 8.68625 81.8671 9.37354 81.8671 10.7005V16.3627C81.8671 16.7857 81.5865 17.0659 81.163 17.0659H80.1519C79.7283 17.0659 79.4478 16.7857 79.4478 16.3627V10.7005C79.4478 9.3894 78.7807 8.68625 77.5313 8.68625C76.2819 8.68625 75.5937 9.37354 75.5937 10.7005V16.3627C75.5937 16.7857 75.3131 17.0659 74.8843 17.0659H73.8784C73.4549 17.0659 73.169 16.7857 73.169 16.3627V16.3574Z" fill="black"/>
<path d="M90.1467 14.2797V14.1158C90.1467 12.0381 91.4597 11.0706 94.2443 11.0706C94.9484 11.0706 95.679 11.1499 96.3831 11.3138V9.84402C96.3831 8.97698 95.8166 8.57518 94.5884 8.57518C93.3602 8.57518 92.8732 8.87653 92.8732 9.60083V9.70128C92.8732 9.98148 92.7302 10.1242 92.4496 10.1242H90.9991C90.7185 10.1242 90.5544 9.96033 90.5544 9.68013V9.57968C90.5544 7.74515 92.0049 6.69836 94.5673 6.69836C97.3519 6.69836 98.7866 7.8086 98.7866 10.0026V14.3748L99.6919 15.2789C100.073 15.6595 100.115 16.1459 99.7342 16.5266L99.3319 16.9284C98.9507 17.309 98.4637 17.272 98.0825 16.8861L97.0713 15.8816C96.4043 16.7486 95.2978 17.272 93.9637 17.272C91.5602 17.272 90.152 16.1618 90.152 14.2691L90.1467 14.2797ZM94.3608 15.448C95.5308 15.448 96.3778 14.7819 96.3778 13.8567V12.9315C95.7319 12.7518 95.1072 12.6672 94.4402 12.6672C93.1484 12.6672 92.5026 13.1113 92.5026 13.9995V14.1581C92.5026 15.0251 93.1273 15.448 94.3608 15.448Z" fill="black"/>
<path d="M21.9967 0H2.44055C1.09057 0 0 1.08908 0 2.43722V21.9667C0 23.3149 1.09057 24.4039 2.44055 24.4039H21.9967C23.3467 24.4039 24.4373 23.3149 24.4373 21.9667V2.43722C24.4373 1.08908 23.3467 0 21.9967 0ZM18.238 17.346C19.0532 17.8589 19.3232 18.8105 18.7462 19.6881C18.2009 20.534 17.2533 20.7402 16.4009 20.1956L6.81343 14.1528C5.8605 13.5765 5.38404 13.069 5.38404 12.2178V12.1861C5.38404 11.3032 5.8605 10.8274 6.81343 10.2511L16.4009 4.21359C17.248 3.66905 18.2009 3.87524 18.7462 4.72113C19.3232 5.60403 19.0532 6.55565 18.238 7.06319L9.84161 12.1914L18.238 17.346Z" fill="black"/>
<path d="M28.2332 22.8547V22.6644C28.2332 22.5798 28.2755 22.5375 28.3549 22.5375H28.6408C28.7096 22.5375 28.7573 22.5798 28.7573 22.6591V22.8495C28.7573 23.3676 29.0749 23.5843 29.7525 23.5843C30.4302 23.5843 30.7478 23.357 30.7478 22.8177V22.6908C30.7478 22.2203 30.5255 22.1199 30.1072 22.0459L29.3025 21.8978C28.6355 21.7762 28.2755 21.57 28.2755 20.8035V20.6713C28.2755 19.8677 28.7943 19.4395 29.7631 19.4395C30.7319 19.4395 31.2349 19.8095 31.2349 20.592V20.7453C31.2349 20.8193 31.1978 20.8722 31.1184 20.8722H30.8325C30.7584 20.8722 30.7108 20.8193 30.7108 20.7453V20.592C30.7108 20.0844 30.4143 19.8677 29.7578 19.8677C29.1014 19.8677 28.8102 20.0897 28.8102 20.629V20.7559C28.8102 21.2211 29.0273 21.3216 29.4402 21.3956L30.2555 21.5436C30.9172 21.6652 31.2825 21.882 31.2825 22.6486V22.7807C31.2825 23.5949 30.7425 24.0178 29.7525 24.0178C28.7626 24.0178 28.2332 23.6478 28.2332 22.86V22.8547Z" fill="black"/>
<path d="M31.8225 23.8013C31.8225 23.7695 31.8331 23.7272 31.8596 23.6479L33.1354 19.7357C33.199 19.5454 33.2731 19.4819 33.4425 19.4819H33.7337C33.8978 19.4819 33.9772 19.5454 34.0407 19.7357L35.3166 23.6479C35.343 23.722 35.3536 23.7695 35.3536 23.8013C35.3536 23.8911 35.2954 23.9493 35.1842 23.9493H35.0148C34.8878 23.9493 34.8507 23.9123 34.8031 23.7695L34.4272 22.58H32.7384L32.3625 23.7695C32.3201 23.907 32.2725 23.9493 32.1454 23.9493H31.9919C31.8754 23.9493 31.8225 23.8911 31.8225 23.8013ZM34.2789 22.1201L33.5801 19.9155L32.8813 22.1201H34.2789Z" fill="black"/>
<path d="M36.1321 23.6902V19.6617C36.1321 19.5665 36.1956 19.5031 36.2909 19.5031H36.5133C36.6085 19.5031 36.6721 19.5665 36.6721 19.6617V23.4893H38.5885C38.6838 23.4893 38.742 23.5475 38.742 23.6426V23.7907C38.742 23.8858 38.6838 23.944 38.5885 23.944H36.3862C36.2274 23.944 36.1321 23.8488 36.1321 23.6902Z" fill="black"/>
<path d="M39.933 23.7166L38.6572 19.7991C38.6307 19.7304 38.6201 19.6828 38.6201 19.6511C38.6201 19.5612 38.6784 19.5031 38.7895 19.5031H38.9589C39.086 19.5031 39.1283 19.5401 39.176 19.6828L40.3672 23.4682L41.5689 19.6828C41.6112 19.5453 41.6536 19.5031 41.7807 19.5031H41.9395C42.0559 19.5031 42.1036 19.5612 42.1036 19.6511C42.1036 19.6828 42.0983 19.7251 42.0718 19.7991L40.796 23.7166C40.7324 23.907 40.6583 23.9704 40.4836 23.9704H40.2348C40.0707 23.9704 39.9913 23.907 39.9277 23.7166H39.933Z" fill="black"/>
<path d="M42.2466 23.8013C42.2466 23.7695 42.2572 23.7272 42.2836 23.6479L43.5595 19.7357C43.623 19.5454 43.6971 19.4819 43.8666 19.4819H44.1577C44.3218 19.4819 44.4013 19.5454 44.4648 19.7357L45.7406 23.6479C45.7671 23.722 45.7777 23.7695 45.7777 23.8013C45.7777 23.8911 45.7195 23.9493 45.6083 23.9493H45.4389C45.3118 23.9493 45.2748 23.9123 45.2271 23.7695L44.8512 22.58H43.1624L42.7866 23.7695C42.7442 23.907 42.6966 23.9493 42.5695 23.9493H42.416C42.2995 23.9493 42.2466 23.8911 42.2466 23.8013ZM44.703 22.1201L44.0042 19.9155L43.3054 22.1201H44.703Z" fill="black"/>
<path d="M47.0641 23.7854V19.9577H45.8253C45.7247 19.9577 45.6665 19.8996 45.6665 19.8044V19.6564C45.6665 19.5612 45.7247 19.5031 45.8253 19.5031H48.8482C48.9488 19.5031 49.0017 19.5612 49.0017 19.6564V19.8044C49.0017 19.8996 48.9488 19.9577 48.8482 19.9577H47.6041V23.7854C47.6041 23.8805 47.5406 23.944 47.4453 23.944H47.2229C47.1277 23.944 47.0641 23.8805 47.0641 23.7854Z" fill="black"/>
<path d="M52.7022 20.9516V22.5007C52.7022 23.4787 52.0881 24.018 51.0504 24.018C50.0128 24.018 49.3987 23.4787 49.3987 22.5007V20.9516C49.3987 19.9736 50.0128 19.4343 51.0504 19.4343C52.0881 19.4343 52.7022 19.9736 52.7022 20.9516ZM51.0504 23.5792C51.7545 23.5792 52.1463 23.2091 52.1463 22.5324V20.9199C52.1463 20.2432 51.7651 19.8731 51.0504 19.8731C50.3357 19.8731 49.944 20.2432 49.944 20.9199V22.5324C49.944 23.2091 50.3304 23.5792 51.0504 23.5792Z" fill="black"/>
<path d="M56.2332 23.87L54.9203 22.194C54.8462 22.0936 54.8038 22.0301 54.8038 21.9456V21.935C54.8038 21.8028 54.8938 21.7235 55.0262 21.7235H55.3174C55.8997 21.7235 56.2015 21.4697 56.2015 20.9675V20.7084C56.2015 20.2009 55.905 19.9471 55.3174 19.9471H54.2956V23.7854C54.2956 23.8805 54.2321 23.944 54.1368 23.944H53.9144C53.8191 23.944 53.7556 23.8805 53.7556 23.7854V19.7885C53.7556 19.6088 53.8615 19.5031 54.0415 19.5031H55.3174C56.2491 19.5031 56.7467 19.926 56.7467 20.7243V20.9569C56.7467 21.6865 56.3285 22.083 55.5344 22.1359L56.6726 23.5422C56.7785 23.6743 56.7467 23.8277 56.6197 23.9228C56.4979 24.0127 56.3338 23.9863 56.2332 23.8594V23.87Z" fill="black"/>
<path d="M57.6626 23.6902V19.7568C57.6626 19.5982 57.7579 19.5031 57.9167 19.5031H60.2355C60.3308 19.5031 60.389 19.5612 60.389 19.6564V19.8044C60.389 19.8996 60.3308 19.9577 60.2355 19.9577H58.2026V21.4592H59.8702C60.0026 21.4592 60.0979 21.5438 60.0979 21.6706V21.6971C60.0979 21.8293 60.0026 21.9138 59.8702 21.9138H58.2026V23.4999H60.2355C60.3308 23.4999 60.389 23.558 60.389 23.6532V23.8012C60.389 23.8964 60.3308 23.9546 60.2355 23.9546H57.9167C57.7579 23.9546 57.6626 23.8594 57.6626 23.7008V23.6902Z" fill="black"/>
</svg>
