<svg width="90" height="20" viewBox="0 0 90 20" fill="none" xmlns="http://www.w3.org/2000/svg">
<g clip-path="url(#clip0_102_100)">
<path d="M22.9206 6.32905C22.464 6.32905 22.0739 6.25306 21.7418 6.10953C21.4097 5.96599 21.1524 5.75491 20.9615 5.48473C20.7788 5.21455 20.6709 4.89371 20.6543 4.52221H21.5758C21.6007 4.74174 21.6671 4.92749 21.7916 5.07102C21.9161 5.223 22.0739 5.33276 22.2731 5.4003C22.4723 5.47629 22.6799 5.51006 22.9123 5.51006C23.1697 5.51006 23.3938 5.46785 23.593 5.38342C23.8006 5.29898 23.9583 5.18922 24.0662 5.03725C24.1825 4.88527 24.2406 4.71641 24.2406 4.52221C24.2406 4.33646 24.1908 4.19293 24.0911 4.07473C23.9915 3.96497 23.8587 3.87209 23.6844 3.7961C23.51 3.72011 23.3191 3.65257 23.095 3.59347L22.3893 3.39927C21.8995 3.26418 21.5094 3.06155 21.2354 2.79981C20.9532 2.52963 20.8203 2.1919 20.8203 1.76975C20.8203 1.41513 20.9116 1.10274 21.1026 0.840999C21.2852 0.579261 21.5426 0.368182 21.8663 0.224649C22.1901 0.0726719 22.5554 0.00512695 22.9621 0.00512695C23.3689 0.00512695 23.7342 0.0726719 24.0496 0.224649C24.3651 0.368182 24.6141 0.570818 24.7885 0.824113C24.9711 1.08585 25.0707 1.37292 25.079 1.7022H24.1742C24.1409 1.42358 24.0164 1.20405 23.7923 1.05208C23.5681 0.891658 23.2776 0.81567 22.9372 0.81567C22.6965 0.81567 22.4806 0.857886 22.3063 0.933874C22.1237 1.00986 21.9825 1.11962 21.8912 1.25471C21.7916 1.3898 21.7418 1.54178 21.7418 1.71909C21.7418 1.91328 21.7999 2.06526 21.9161 2.1919C22.0324 2.31011 22.1735 2.40298 22.3478 2.47053C22.5138 2.54652 22.6799 2.59717 22.8293 2.63939L23.4187 2.79981C23.6096 2.85047 23.8089 2.90957 24.0081 2.994C24.2157 3.07843 24.3983 3.1882 24.5726 3.32329C24.747 3.45838 24.8881 3.6188 24.996 3.82143C25.1039 4.01562 25.1537 4.25203 25.1537 4.53066C25.1537 4.87683 25.0707 5.18922 24.8964 5.4594C24.7138 5.72958 24.4647 5.94066 24.1326 6.10108C23.7923 6.25306 23.3938 6.32905 22.9206 6.32905Z" fill="black"/>
<path d="M25.7524 6.22767L27.9025 0.0810547H29.0399L31.2232 6.22767H30.227L29.0482 2.80819C28.9568 2.52957 28.8572 2.20873 28.7493 1.82879C28.6414 1.44885 28.5086 1.00136 28.3674 0.477883H28.5584C28.4172 1.0098 28.2927 1.46573 28.1848 1.84567C28.0769 2.22562 27.9773 2.54646 27.8942 2.80819L26.7486 6.22767H25.7524ZM26.9147 4.60659V3.82137H30.0609V4.60659H26.9147Z" fill="black"/>
<path d="M32.1018 6.22767V0.0810547H33.0233V5.41713H35.7545V6.22767H32.1018Z" fill="black"/>
<path d="M37.9265 6.22767L35.7432 0.0810547H36.7394L37.9182 3.50053C38.0012 3.77071 38.1008 4.09155 38.217 4.47149C38.3249 4.85144 38.4495 5.30737 38.5906 5.8224H38.408C38.5491 5.29048 38.6736 4.84299 38.7815 4.46305C38.8895 4.08311 38.9891 3.77071 39.0721 3.50053L40.2094 0.0810547H41.2139L39.0555 6.22767H37.9265Z" fill="black"/>
<path d="M41.0315 6.22767L43.1816 0.0810547H44.3189L46.5022 6.22767H45.506L44.3272 2.80819C44.2359 2.52957 44.1363 2.20873 44.0284 1.82879C43.9204 1.44885 43.7876 1.00136 43.6465 0.477883H43.8374C43.6963 1.0098 43.5718 1.46573 43.4638 1.84567C43.3559 2.22562 43.2563 2.54646 43.1733 2.80819L42.0277 6.22767H41.0315ZM42.1937 4.60659V3.82137H45.34V4.60659H42.1937Z" fill="black"/>
<path d="M46.3564 0.891597V0.0810547H51.0468V0.891597H49.1707V6.22767H48.2409V0.891597H46.3564Z" fill="black"/>
<path d="M54.3477 6.31216C53.8247 6.31216 53.3598 6.18551 52.9447 5.93222C52.5379 5.67893 52.2059 5.31587 51.9734 4.8515C51.7327 4.37868 51.6165 3.81299 51.6165 3.16287C51.6165 2.5043 51.7327 1.93861 51.9734 1.46579C52.2059 0.992976 52.5379 0.638364 52.9447 0.385069C53.3598 0.131774 53.8247 0.00512695 54.3477 0.00512695C54.8707 0.00512695 55.3355 0.131774 55.7423 0.385069C56.1491 0.638364 56.4729 0.992976 56.7136 1.46579C56.9461 1.93861 57.0706 2.5043 57.0706 3.16287C57.0706 3.81299 56.9461 4.37868 56.7136 4.8515C56.4729 5.31587 56.1491 5.67893 55.7423 5.93222C55.3355 6.18551 54.8707 6.31216 54.3477 6.31216ZM54.3477 5.45096C54.688 5.45096 54.9952 5.36653 55.2691 5.18922C55.5431 5.01192 55.7506 4.75862 55.9084 4.41245C56.0661 4.07473 56.1491 3.65257 56.1491 3.16287C56.1491 2.66472 56.0661 2.24256 55.9084 1.89639C55.7506 1.55867 55.5431 1.29693 55.2691 1.11962C54.9952 0.942317 54.688 0.857886 54.3477 0.857886C53.999 0.857886 53.6918 0.95076 53.4179 1.12807C53.1439 1.29693 52.9281 1.55867 52.7704 1.90484C52.6126 2.24256 52.5379 2.66472 52.5379 3.16287C52.5379 3.65257 52.6126 4.07473 52.7704 4.41245C52.9281 4.75018 53.1439 5.01192 53.4179 5.18922C53.6918 5.36653 53.999 5.45096 54.3477 5.45096Z" fill="black"/>
<path d="M58.196 6.22767V0.0810547H60.3544C60.8193 0.0810547 61.2095 0.165486 61.5167 0.334349C61.8321 0.494769 62.0646 0.722734 62.214 1.0098C62.3717 1.30531 62.4464 1.63459 62.4464 2.01454C62.4464 2.39448 62.3717 2.72376 62.214 3.01083C62.0563 3.2979 61.8238 3.51742 61.5167 3.66939C61.2095 3.82981 60.8193 3.9058 60.3461 3.9058H58.719V3.1037H60.2548C60.5537 3.1037 60.7944 3.06149 60.9771 2.97706C61.1597 2.88418 61.2925 2.76598 61.3838 2.59711C61.4669 2.43669 61.5084 2.2425 61.5084 2.01454C61.5084 1.78657 61.4669 1.58394 61.3838 1.41507C61.2925 1.24621 61.1597 1.11956 60.9771 1.02669C60.7944 0.933813 60.5537 0.891597 60.2548 0.891597H59.1175V6.22767H58.196ZM61.6246 6.22767L60.1635 3.44987H61.1846L62.6789 6.22767H61.6246Z" fill="black"/>
<path d="M63.575 6.22767V0.0810547H67.3688V0.891597H64.4964V2.72376H67.1695V3.52586H64.4964V5.41713H67.402V6.22767H63.575Z" fill="black"/>
<path d="M18.7184 0.00012207H-0.000244141V19.888H18.7184V0.00012207Z" fill="black"/>
<path d="M24.1671 19.8405H21.343V18.2926H24.073C24.9359 18.2926 25.6577 18.1171 26.2225 17.7979C26.803 17.4628 27.2266 16.9841 27.5091 16.3458C27.7915 15.7075 27.9484 14.9416 27.9484 14.016C27.9484 13.1065 27.7915 12.3405 27.5091 11.7182C27.2266 11.0799 26.803 10.6012 26.2539 10.282C25.689 9.94691 24.9987 9.78734 24.1671 9.78734H21.2802V8.22351H24.277C25.4066 8.22351 26.3637 8.46287 27.1639 8.92564C27.9641 9.3884 28.576 10.0586 29.0153 10.9203C29.4389 11.782 29.6586 12.8192 29.6586 14.016C29.6586 15.2288 29.4389 16.266 29.0153 17.1437C28.576 18.0054 27.9484 18.6756 27.1325 19.1384C26.3166 19.6011 25.3282 19.8405 24.1671 19.8405ZM22.2059 8.22351V19.8405H20.4644V8.22351H22.2059Z" fill="black"/>
<path d="M31.79 19.8405V8.22351H38.9603V9.75542H33.5316V13.2182H38.5837V14.7341H33.5316V18.3086H39.023V19.8405H31.79Z" fill="black"/>
<path d="M44.0229 19.8405V8.22351H48.1023C48.9809 8.22351 49.7183 8.38308 50.2989 8.70223C50.8951 9.00542 51.3344 9.43627 51.6168 9.97882C51.9149 10.5373 52.0561 11.1597 52.0561 11.8778C52.0561 12.5958 51.9149 13.2182 51.6168 13.7607C51.3187 14.3033 50.8794 14.7182 50.2989 15.0054C49.7183 15.3086 48.9809 15.4522 48.0866 15.4522H45.0114V13.9363H47.914C48.4788 13.9363 48.9338 13.8565 49.279 13.6969C49.6242 13.5214 49.8752 13.298 50.0478 12.9788C50.2047 12.6756 50.2832 12.3086 50.2832 11.8778C50.2832 11.4469 50.2047 11.0639 50.0478 10.7448C49.8752 10.4256 49.6242 10.1863 49.279 10.0107C48.9338 9.83521 48.4788 9.75542 47.914 9.75542H45.7645V19.8405H44.0229ZM50.5028 19.8405L47.7414 14.5905H49.6713L52.4954 19.8405H50.5028Z" fill="black"/>
<path d="M58.9432 20C57.9547 20 57.0761 19.7606 56.2916 19.2819C55.5228 18.8032 54.8952 18.117 54.4559 17.2394C54.0009 16.3458 53.7812 15.2766 53.7812 14.0479C53.7812 12.8032 54.0009 11.7341 54.4559 10.8405C54.8952 9.94685 55.5228 9.27664 56.2916 8.79792C57.0761 8.3192 57.9547 8.07983 58.9432 8.07983C59.9316 8.07983 60.8103 8.3192 61.5791 8.79792C62.3479 9.27664 62.9598 9.94685 63.4148 10.8405C63.8541 11.7341 64.0894 12.8032 64.0894 14.0479C64.0894 15.2766 63.8541 16.3458 63.4148 17.2394C62.9598 18.117 62.3479 18.8032 61.5791 19.2819C60.8103 19.7606 59.9316 20 58.9432 20ZM58.9432 18.3724C59.5865 18.3724 60.167 18.2128 60.6847 17.8777C61.2025 17.5426 61.5948 17.0638 61.8929 16.4096C62.191 15.7713 62.3479 14.9734 62.3479 14.0479C62.3479 13.1064 62.191 12.3085 61.8929 11.6543C61.5948 11.016 61.2025 10.5213 60.6847 10.1862C60.167 9.8511 59.5865 9.69153 58.9432 9.69153C58.2842 9.69153 57.7037 9.86706 57.1859 10.2022C56.6682 10.5213 56.2602 11.016 55.9621 11.6702C55.664 12.3085 55.5228 13.1064 55.5228 14.0479C55.5228 14.9734 55.664 15.7713 55.9621 16.4096C56.2602 17.0479 56.6682 17.5426 57.1859 17.8777C57.7037 18.2128 58.2842 18.3724 58.9432 18.3724Z" fill="black"/>
<path d="M66.2166 19.8405V8.22351H68.7897L71.2687 14.8937C71.3471 15.0852 71.4256 15.3405 71.5197 15.6437C71.5981 15.9469 71.6923 16.266 71.7864 16.6331C71.8962 16.9841 71.9904 17.3192 72.0688 17.6703C72.163 18.0054 72.2414 18.3245 72.3042 18.5958H71.9276C72.0061 18.3405 72.0845 18.0373 72.163 17.7022C72.2571 17.3511 72.3513 17.016 72.4454 16.649C72.5395 16.298 72.6337 15.9628 72.7278 15.6597C72.8063 15.3405 72.9004 15.0852 72.9632 14.8937L75.4264 8.22351H77.9996V19.8405H76.2737V13.6012C76.2737 13.3458 76.2737 13.0586 76.2737 12.7395C76.2737 12.4043 76.2894 12.0533 76.2894 11.6863C76.3051 11.3033 76.3051 10.9363 76.3208 10.5533C76.3365 10.1703 76.3365 9.80329 76.3365 9.45223H76.4777C76.3678 9.83521 76.258 10.2341 76.1325 10.6331C76.0227 11.032 75.8971 11.415 75.7873 11.798C75.6618 12.165 75.552 12.516 75.4578 12.8192C75.348 13.1384 75.2539 13.3937 75.1911 13.6012L72.8533 19.8405H71.3471L68.9936 13.6012C68.9152 13.3937 68.8211 13.1384 68.7269 12.8352C68.6328 12.532 68.5229 12.1969 68.3974 11.8299C68.2876 11.4629 68.1621 11.0639 68.0366 10.665C67.9267 10.2661 67.8012 9.86712 67.6757 9.45223H67.8326C67.8326 9.77138 67.8483 10.1224 67.8483 10.4895C67.864 10.8724 67.864 11.2395 67.8797 11.6224C67.8797 12.0054 67.8954 12.3565 67.8954 12.6916C67.911 13.0426 67.911 13.3458 67.911 13.6012V19.8405H66.2166Z" fill="black"/>
<path d="M79.6597 19.8405L83.7233 8.22351H85.8728L89.9992 19.8405H88.1165L85.8885 13.3777C85.7159 12.8512 85.5276 12.2448 85.3237 11.5267C85.1197 10.8086 84.8687 9.96287 84.6019 8.97351H84.9628C84.6961 9.97882 84.4607 10.8405 84.2568 11.5586C84.0528 12.2767 83.8645 12.8831 83.7076 13.3777L81.5424 19.8405H79.6597ZM81.8562 16.7767V15.2926H87.8027V16.7767H81.8562Z" fill="black"/>
<path d="M2.78931 11.0948V8.80388L15.9426 2.32715V5.46652L6.26535 9.9069L6.34877 9.7372V10.1614L6.26535 9.99175L15.9426 14.4604V17.5715L2.78931 11.0948Z" fill="white"/>
</g>
<defs>
<clipPath id="clip0_102_100">
<rect width="90" height="20" fill="white"/>
</clipPath>
</defs>
</svg>
